<svg xmlns="http://www.w3.org/2000/svg" width="117.699" height="120" viewBox="0 0 117.699 120">
  <g id="excel" transform="translate(-4.909)">
    <path id="Path_8505" data-name="Path 8505" d="M106.545,305.312H8.4a3.487,3.487,0,0,1-3.487-3.487v-56.3a3.487,3.487,0,0,1,6.973,0v52.812h91.177v-7.7a3.487,3.487,0,1,1,6.973,0v11.182A3.487,3.487,0,0,1,106.545,305.312Z" transform="translate(0 -185.312)" fill="#507c5c"/>
    <g id="Group_6664" data-name="Group 6664" transform="translate(8.396 3.487)">
      <path id="Path_8506" data-name="Path 8506" d="M19.785,52.9V51.78L56.3,14.876V52.9Z" transform="translate(-19.785 -14.876)" fill="#cff09e"/>
      <rect id="Rectangle_4306" data-name="Rectangle 4306" width="69.389" height="38.355" transform="translate(41.336 47.944)" fill="#cff09e"/>
    </g>
    <g id="Group_6665" data-name="Group 6665" transform="translate(4.909)">
      <path id="Path_8507" data-name="Path 8507" d="M119.122,47.944h-9.09V3.487A3.487,3.487,0,0,0,106.546,0H44.911c-.043,0-.085,0-.128.006l-.117.006a3.517,3.517,0,0,0-.447.057l-.01,0a3.429,3.429,0,0,0-.425.119L43.675.23a3.5,3.5,0,0,0-.4.179L43.26.416a3.443,3.443,0,0,0-.383.244c-.032.023-.063.046-.094.07a3.479,3.479,0,0,0-.351.3L5.918,37.938a3.445,3.445,0,0,0-.232.259c-.049.06-.091.122-.135.184-.022.031-.046.06-.066.091-.05.076-.095.155-.139.234-.011.019-.023.038-.034.057-.043.081-.08.164-.116.248-.009.02-.019.039-.027.06-.033.08-.06.161-.086.243-.008.026-.019.051-.026.077-.022.075-.04.151-.057.228-.008.034-.018.069-.025.1-.014.07-.022.142-.031.213-.006.041-.013.082-.017.124-.007.071-.008.142-.011.214,0,.039-.006.078-.006.117v1.123A3.487,3.487,0,0,0,8.4,45H44.911A3.486,3.486,0,0,0,48.4,41.512V6.973H103.06v40.97H49.733a3.486,3.486,0,0,0-3.487,3.487V89.784a3.487,3.487,0,0,0,3.487,3.487h69.389a3.487,3.487,0,0,0,3.487-3.487V51.43A3.487,3.487,0,0,0,119.122,47.944ZM15.64,38.026,41.424,11.967V38.026Zm100,48.271H53.22V54.917h62.416V86.3Z" transform="translate(-4.91 0)" fill="#507c5c"/>
      <path id="Path_8508" data-name="Path 8508" d="M231.5,273.5l-3.767,6.4a1.084,1.084,0,0,1-.955.413c-1.11,0-2.684-.877-2.684-1.987a1.392,1.392,0,0,1,.232-.722l4.464-6.889-4.283-6.863a1.459,1.459,0,0,1-.258-.8c0-1.083,1.471-1.91,2.606-1.91a1.255,1.255,0,0,1,1.213.671L231.5,267.8l3.431-5.986a1.255,1.255,0,0,1,1.213-.671c1.135,0,2.606.826,2.606,1.91a1.463,1.463,0,0,1-.258.8l-4.283,6.863,4.464,6.889a1.4,1.4,0,0,1,.232.722c0,1.11-1.574,1.987-2.683,1.987a1.055,1.055,0,0,1-.955-.413Z" transform="translate(-172.724 -199.938)" fill="#507c5c"/>
      <path id="Path_8509" data-name="Path 8509" d="M295.863,280.663c-.878,0-1.755-.413-1.755-1.238v-16.41c0-.851,1.007-1.213,2.012-1.213s2.012.361,2.012,1.213v14.14h5.883c.774,0,1.161.878,1.161,1.755s-.387,1.755-1.161,1.755h-8.153Z" transform="translate(-226.327 -200.442)" fill="#507c5c"/>
      <path id="Path_8510" data-name="Path 8510" d="M353.057,275.1c0-3.122-8.179-2.58-8.179-8.618,0-3.87,3.38-5.341,6.605-5.341,1.368,0,5.135.258,5.135,2.271,0,.7-.464,2.116-1.6,2.116-.929,0-1.419-.98-3.535-.98-1.832,0-2.58.748-2.58,1.548,0,2.58,8.179,2.09,8.179,8.592,0,3.716-2.709,5.728-6.451,5.728-3.38,0-6.218-1.651-6.218-3.354,0-.877.774-2.167,1.755-2.167,1.213,0,1.987,1.91,4.386,1.91C351.741,276.8,353.057,276.34,353.057,275.1Z" transform="translate(-264.842 -199.937)" fill="#507c5c"/>
      <path id="Path_8511" data-name="Path 8511" d="M409.283,273.5l-3.767,6.4a1.084,1.084,0,0,1-.955.413c-1.11,0-2.683-.877-2.683-1.987a1.394,1.394,0,0,1,.232-.722l4.464-6.889-4.283-6.863a1.459,1.459,0,0,1-.258-.8c0-1.083,1.471-1.91,2.606-1.91a1.255,1.255,0,0,1,1.213.671l3.432,5.986,3.432-5.986a1.254,1.254,0,0,1,1.213-.671c1.136,0,2.606.826,2.606,1.91a1.459,1.459,0,0,1-.258.8l-4.283,6.863,4.464,6.889a1.4,1.4,0,0,1,.232.722c0,1.11-1.574,1.987-2.683,1.987a1.054,1.054,0,0,1-.955-.413Z" transform="translate(-308.839 -199.938)" fill="#507c5c"/>
    </g>
  </g>
</svg>
