<svg xmlns="http://www.w3.org/2000/svg" width="42" height="42" viewBox="0 0 42 42">
  <path id="cancel-circle" d="M42,21.036a20.572,20.572,0,0,1-2.814,10.542,20.851,20.851,0,0,1-7.644,7.644A20.571,20.571,0,0,1,21,42.036a20.572,20.572,0,0,1-10.542-2.814,20.851,20.851,0,0,1-7.644-7.644A20.572,20.572,0,0,1,0,21.036,20.571,20.571,0,0,1,2.814,10.494,20.851,20.851,0,0,1,10.458,2.85,20.572,20.572,0,0,1,21,.036,20.571,20.571,0,0,1,31.542,2.85a20.851,20.851,0,0,1,7.644,7.644A20.571,20.571,0,0,1,42,21.036ZM27.762,30.78,30.744,27.8l-6.762-6.762,6.762-6.762-2.982-2.982L21,18.054l-6.762-6.762-2.982,2.982,6.762,6.762L11.256,27.8l2.982,2.982L21,24.018Z" transform="translate(0 -0.036)" fill="#fff"/>
</svg>
