<svg xmlns="http://www.w3.org/2000/svg" width="13.583" height="18.616" viewBox="0 0 13.583 18.616">
  <path id="Icon_awesome-rupee-sign" data-name="Icon awesome-rupee-sign" d="M12.111,4.767a.472.472,0,0,0,.472-.472V2.722a.472.472,0,0,0-.472-.472H.472A.472.472,0,0,0,0,2.722v1.76a.472.472,0,0,0,.472.472H3.825a2.837,2.837,0,0,1,2.4,1.072H.472A.472.472,0,0,0,0,6.5V8.07a.472.472,0,0,0,.472.472H6.714a2.717,2.717,0,0,1-2.94,2.305H.472A.472.472,0,0,0,0,11.319V13.4a.472.472,0,0,0,.152.347l6.49,5.991a.472.472,0,0,0,.32.125h3.246a.472.472,0,0,0,.32-.819L4.6,13.571a5.387,5.387,0,0,0,5.439-5.029h2.077a.472.472,0,0,0,.472-.472V6.5a.472.472,0,0,0-.472-.472H9.8a5.386,5.386,0,0,0-.56-1.258Z" transform="translate(0.5 -1.75)" fill="#1d1c1c" stroke="#f9f9f9" stroke-width="1"/>
</svg>
