<svg xmlns="http://www.w3.org/2000/svg" width="40.035" height="40.035" viewBox="0 0 40.035 40.035">
  <path id="Icon_ionic-ios-close-circle" data-name="Icon ionic-ios-close-circle" d="M23.392,3.375A20.017,20.017,0,1,0,43.41,23.392,20.014,20.014,0,0,0,23.392,3.375Zm5.072,27.264-5.072-5.072-5.072,5.072a1.538,1.538,0,1,1-2.175-2.175l5.072-5.072-5.072-5.072a1.538,1.538,0,0,1,2.175-2.175l5.072,5.072,5.072-5.072a1.538,1.538,0,1,1,2.175,2.175l-5.072,5.072,5.072,5.072a1.545,1.545,0,0,1,0,2.175A1.528,1.528,0,0,1,28.464,30.639Z" transform="translate(-3.375 -3.375)" fill="#c8c8c8"/>
</svg>
