<svg xmlns="http://www.w3.org/2000/svg" width="27.603" height="13.13" viewBox="0 0 27.603 13.13">
  <path id="Icon_ionic-md-arrow-round-back" data-name="Icon ionic-md-arrow-round-back" d="M32.022,11.629H9.873l3.283-3.141a1.308,1.308,0,0,0,0-1.788,1.17,1.17,0,0,0-1.709,0L5.981,12a1.2,1.2,0,0,0-.356.886V12.9a1.2,1.2,0,0,0,.356.886l5.462,5.3a1.17,1.17,0,0,0,1.709,0,1.308,1.308,0,0,0,0-1.788L9.869,14.16H32.018a1.238,1.238,0,0,0,1.21-1.266A1.225,1.225,0,0,0,32.022,11.629Z" transform="translate(-5.625 -6.33)" fill="#1e1e1e"/>
</svg>
